<?xml version="1.0" standalone="no"?>
<!DOCTYPE svg PUBLIC "-//W3C//DTD SVG 20010904//EN"
 "http://www.w3.org/TR/2001/REC-SVG-20010904/DTD/svg10.dtd">
<svg version="1.0" xmlns="http://www.w3.org/2000/svg"
 width="1920.000000pt" height="1920.000000pt" viewBox="0 0 1920.000000 1920.000000"
 preserveAspectRatio="xMidYMid meet">
<metadata>
Created by potrace 1.11, written by Peter Selinger 2001-2013
</metadata>
<g transform="translate(0.000000,1920.000000) scale(0.100000,-0.100000)"
fill="#000000" stroke="none">
<path d="M7388 18926 c-139 -36 -265 -196 -341 -431 -42 -129 -102 -375 -113
-458 -5 -46 -12 -88 -19 -127 -3 -14 -7 -43 -10 -65 -2 -22 -7 -49 -9 -60 -2
-11 -9 -56 -16 -100 -7 -44 -13 -87 -15 -95 -7 -40 -16 -99 -19 -140 -3 -25
-7 -58 -10 -75 -4 -26 -41 -319 -51 -410 -2 -16 -6 -55 -9 -85 -4 -30 -8 -71
-11 -90 -6 -44 -12 -99 -20 -170 -4 -30 -8 -66 -10 -80 -2 -14 -7 -50 -10 -80
-3 -30 -7 -66 -10 -80 -2 -14 -7 -47 -10 -75 -3 -27 -8 -63 -10 -80 -3 -16 -7
-48 -10 -69 -3 -22 -7 -41 -8 -42 -1 -1 -29 11 -62 27 -33 15 -193 85 -355
154 -422 181 -609 262 -692 299 -77 34 -319 136 -323 136 -3 0 -24 9 -48 19
-242 111 -781 316 -1292 492 -124 43 -363 110 -442 124 -15 2 -60 10 -98 18
-150 28 -269 3 -310 -65 -25 -42 -26 -172 -1 -273 20 -80 91 -297 131 -400 48
-125 66 -170 75 -190 5 -11 30 -72 56 -135 25 -63 50 -119 54 -125 4 -5 12
-23 17 -40 19 -57 286 -630 368 -790 208 -405 358 -676 460 -830 185 -276 307
-437 321 -422 7 7 1 19 -141 257 -192 321 -354 627 -452 855 -44 102 -115 277
-117 290 -1 6 -4 15 -8 20 -8 14 -104 322 -113 362 -3 16 -21 96 -30 133 -18
75 -64 294 -69 330 -3 25 -8 59 -11 75 -14 88 -17 119 -20 215 -6 168 15 248
73 276 55 26 128 13 283 -49 155 -63 171 -70 454 -202 375 -175 1071 -520
1330 -661 303 -163 770 -449 858 -524 7 -6 -33 -215 -52 -270 -5 -14 -17 -54
-27 -90 -51 -187 -154 -391 -270 -537 -62 -78 -221 -233 -319 -312 -44 -35
-81 -68 -83 -72 -2 -5 -8 -9 -14 -9 -5 0 -16 -7 -25 -15 -8 -9 -41 -34 -72
-56 -226 -159 -330 -231 -581 -400 -517 -349 -624 -422 -685 -464 -33 -23
-112 -77 -175 -121 -124 -86 -452 -323 -460 -333 -3 -3 -32 -26 -65 -50 -33
-25 -74 -56 -91 -70 -18 -14 -47 -37 -65 -51 -220 -165 -593 -509 -754 -695
-27 -32 -55 -63 -61 -70 -22 -22 -204 -265 -241 -322 -21 -32 -41 -59 -45 -61
-5 -2 -8 -8 -8 -14 0 -5 -13 -29 -30 -53 -16 -24 -30 -46 -30 -48 0 -3 -17
-34 -38 -68 -73 -120 -161 -322 -224 -513 -30 -90 -84 -292 -93 -349 -3 -18
-8 -39 -10 -47 -2 -8 -6 -33 -10 -55 -3 -22 -7 -51 -10 -65 -27 -163 -43 -376
-50 -645 -12 -462 -19 -637 -31 -740 -18 -160 -26 -222 -45 -327 -5 -32 -12
-70 -15 -85 -3 -16 -16 -73 -30 -128 -14 -55 -27 -107 -29 -115 -1 -8 -10 -40
-19 -71 -9 -31 -18 -65 -21 -75 -18 -83 -169 -505 -225 -629 -28 -61 -50 -114
-50 -118 0 -14 -202 -428 -220 -452 -4 -5 -25 -41 -46 -80 -21 -38 -69 -119
-107 -180 -39 -60 -91 -143 -116 -183 -25 -40 -58 -91 -73 -115 -43 -68 -115
-217 -137 -284 -50 -149 -47 -286 11 -473 21 -70 20 -68 73 -185 64 -142 264
-466 351 -568 11 -13 32 -40 48 -62 101 -137 323 -374 451 -481 89 -76 190
-146 285 -201 87 -49 261 -133 278 -133 5 0 22 -6 38 -14 16 -8 70 -31 119
-52 146 -61 265 -144 460 -319 84 -75 238 -195 336 -261 296 -200 655 -323
1049 -360 36 -3 83 -7 105 -10 52 -5 407 -5 465 0 25 2 86 7 135 11 145 10
273 24 380 40 17 2 53 7 80 11 28 3 52 8 55 9 3 2 24 6 46 9 22 4 49 8 59 10
11 2 40 7 65 11 25 4 52 9 60 10 403 81 843 204 1152 323 l77 30 118 -157 c65
-86 122 -160 126 -166 19 -23 251 -344 283 -390 18 -27 48 -71 66 -96 97 -136
441 -643 613 -904 450 -682 668 -1010 681 -1023 8 -7 14 -16 14 -20 0 -4 22
-32 50 -62 40 -45 49 -51 50 -34 1 84 -302 700 -600 1219 -362 632 -652 1070
-1027 1553 -74 95 -133 175 -131 176 1 2 76 40 165 84 193 96 419 230 598 355
72 50 132 93 135 96 3 3 43 35 88 70 l84 64 61 -43 c225 -158 881 -663 1087
-837 14 -11 75 -62 135 -113 106 -89 207 -174 229 -195 6 -5 43 -37 81 -70 81
-70 132 -114 155 -135 9 -8 50 -44 91 -80 41 -35 76 -67 79 -70 3 -3 48 -43
100 -90 104 -93 152 -137 250 -227 142 -130 348 -321 400 -369 30 -29 71 -66
90 -84 42 -38 133 -123 251 -234 47 -45 139 -130 203 -191 65 -60 137 -128
161 -150 306 -288 351 -329 525 -485 52 -47 97 -87 100 -91 25 -27 151 -119
164 -119 15 0 15 4 -3 37 -31 61 -304 412 -393 504 -7 8 -36 41 -63 73 -28 33
-63 74 -80 91 -16 18 -44 48 -61 68 -26 31 -95 107 -228 251 -28 30 -217 232
-317 337 -236 250 -758 759 -984 960 -27 24 -59 53 -71 64 -41 39 -91 82 -234
204 -80 68 -156 133 -170 145 -14 11 -50 41 -80 66 -30 25 -57 47 -60 50 -14
15 -301 239 -420 326 -303 225 -607 441 -738 525 l-73 47 58 59 c144 147 211
224 254 291 28 45 30 62 6 58 -20 -3 -120 -61 -245 -144 -64 -43 -146 -96
-182 -118 l-65 -41 -230 138 c-126 76 -249 148 -273 161 -23 13 -55 30 -70 38
-496 279 -1049 550 -1122 550 -50 0 123 -127 510 -375 260 -166 916 -599 953
-628 9 -8 17 -17 17 -20 0 -6 -121 -82 -197 -123 -29 -16 -112 -63 -185 -104
-73 -41 -257 -136 -408 -212 l-275 -138 -40 43 c-22 24 -78 86 -125 137 -151
167 -469 481 -596 590 -112 96 -219 169 -231 157 -17 -17 118 -203 441 -607
204 -256 213 -267 280 -354 l46 -60 -63 -27 c-259 -110 -625 -237 -867 -300
-44 -11 -197 -46 -230 -52 -14 -3 -36 -8 -50 -11 -132 -31 -418 -58 -610 -59
-189 0 -323 12 -545 49 -275 46 -689 182 -1065 351 -155 70 -496 243 -610 310
-47 28 -90 52 -95 54 -6 2 -42 23 -80 47 -39 24 -79 48 -90 55 -11 7 -86 56
-168 110 -126 85 -196 136 -337 247 -46 37 -153 145 -192 194 -21 27 -51 74
-66 105 -24 49 -27 67 -26 151 1 167 54 285 382 860 113 197 229 435 256 522
31 104 37 160 21 222 -23 88 -93 127 -235 129 -77 1 -219 -8 -295 -19 -93 -13
-171 -18 -257 -19 -91 0 -99 2 -122 25 -30 30 -37 70 -21 131 29 109 93 226
331 611 453 730 639 1139 682 1493 10 81 8 387 -3 460 -17 119 -40 234 -66
340 -6 22 -11 47 -13 55 -1 8 -5 24 -9 35 -3 11 -8 31 -11 45 -2 14 -9 43 -14
65 -12 45 -16 61 -42 200 -25 137 -30 184 -31 295 0 256 95 541 282 842 82
133 270 396 357 500 11 13 55 66 98 118 43 52 81 97 84 100 3 3 39 43 80 90
143 163 424 450 551 565 31 28 96 87 145 132 144 132 151 138 324 277 695 560
1503 991 2210 1180 52 14 106 27 120 30 14 3 36 8 50 11 33 8 215 42 265 49
22 4 69 11 105 17 36 5 76 12 90 14 14 2 54 6 90 10 36 4 76 8 90 10 14 2 52
7 85 10 33 3 76 7 95 10 40 6 196 22 285 31 80 7 313 40 417 58 175 31 235 47
459 122 483 162 752 437 803 824 12 86 13 356 3 405 -3 11 -8 43 -11 70 -12
87 -66 311 -98 405 -3 8 -11 33 -18 55 -59 191 -223 538 -370 785 -41 69 -161
253 -266 410 -199 297 -224 338 -224 366 0 36 103 -13 275 -131 159 -109 261
-180 270 -188 13 -11 429 -310 475 -342 19 -13 71 -50 115 -83 44 -32 179
-130 300 -217 121 -87 261 -188 310 -225 50 -37 302 -222 560 -411 1241 -911
1851 -1368 2350 -1761 445 -350 911 -735 1145 -944 113 -101 283 -256 334
-303 32 -31 77 -73 100 -95 87 -81 356 -349 470 -467 463 -482 805 -885 1210
-1424 70 -93 133 -177 139 -185 39 -50 184 -247 197 -266 8 -13 77 -107 152
-211 75 -103 215 -300 311 -438 97 -137 201 -286 232 -330 31 -44 92 -129 134
-190 222 -315 517 -726 610 -850 195 -260 309 -386 319 -355 8 22 -31 120
-118 295 -94 190 -138 274 -296 552 -37 65 -77 134 -89 153 -12 19 -53 87 -90
150 -71 119 -222 363 -329 530 -76 120 -387 584 -447 667 -24 34 -71 101 -104
148 -67 96 -64 92 -270 370 -81 110 -151 202 -154 205 -3 3 -42 52 -86 110
-149 197 -631 791 -710 876 -5 6 -29 33 -52 60 -52 62 -78 91 -111 129 -15 17
-61 68 -101 115 -417 479 -1071 1149 -1526 1565 -66 61 -122 112 -125 115 -4
5 -150 136 -260 234 -44 39 -235 204 -274 237 -17 13 -48 40 -70 59 -23 20
-63 53 -91 75 -27 22 -52 42 -55 46 -3 4 -70 59 -150 123 -80 64 -152 122
-160 129 -8 7 -118 93 -245 192 -424 331 -891 678 -1385 1028 -113 80 -209
150 -215 154 -17 14 -527 371 -830 582 -45 31 -174 121 -288 201 -114 80 -274
191 -355 247 -81 56 -151 106 -157 110 -5 5 -55 40 -110 78 -206 142 -760 539
-763 547 -2 4 -10 8 -18 8 -8 0 -14 4 -14 8 0 4 -15 16 -32 27 -18 10 -37 23
-43 28 -23 20 -228 157 -311 209 -269 166 -431 218 -566 184z"/>
<path d="M4768 10335 c-2 -1 -59 -5 -128 -9 -69 -3 -138 -8 -155 -10 -16 -2
-57 -7 -90 -11 -73 -8 -104 -12 -220 -30 -124 -20 -140 -23 -220 -41 -38 -9
-83 -18 -98 -21 -91 -15 -213 -75 -245 -121 -38 -53 -19 -103 90 -233 109
-130 187 -242 348 -503 161 -261 274 -360 450 -392 51 -9 180 -6 231 5 24 5
58 12 76 15 168 30 515 211 701 365 170 142 232 222 367 476 106 201 170 256
380 325 63 21 67 24 45 32 -43 16 -361 77 -490 93 -30 4 -64 9 -75 11 -10 2
-47 6 -81 10 -33 3 -74 7 -90 9 -16 2 -63 6 -104 10 -41 3 -95 8 -120 11 -47
6 -566 14 -572 9z"/>
<path d="M6705 5940 c-16 -6 -15 -9 12 -28 46 -33 208 -107 433 -197 526 -212
990 -430 1339 -626 57 -33 105 -59 106 -59 3 0 146 -82 175 -100 8 -5 40 -24
70 -42 106 -62 326 -202 500 -317 96 -64 180 -118 185 -120 6 -2 12 -7 15 -10
3 -3 48 -35 100 -70 182 -124 587 -409 910 -641 179 -128 354 -253 390 -278
36 -25 88 -62 115 -82 100 -73 366 -249 386 -255 11 -4 23 -4 26 -1 17 17
-199 238 -466 476 -46 41 -89 80 -95 85 -13 12 -345 289 -426 355 -73 60 -70
57 -195 155 -60 48 -125 99 -144 113 -100 79 -529 390 -589 427 -9 6 -71 46
-136 89 -340 223 -732 440 -1093 605 -289 132 -523 224 -828 326 -340 115
-739 213 -790 195z"/>
</g>
</svg>
